<svg preserveAspectRatio="none" width="100%" height="100%" overflow="visible" style="display: block;" viewBox="0 0 35.3783 47.464" fill="none" xmlns="http://www.w3.org/2000/svg">
<g id="Group">
<path id="Vector" d="M21.6267 47.342L20.5557 47.464C20.5217 47.164 17.7347 23.611 9.38768 12.013C5.23468 13.584 2.03569 12.108 0.679688 9.894C-0.389312 8.148 -0.182313 6.184 1.19469 5.006L1.40068 4.829L1.66568 4.89C17.0227 8.435 21.4457 45.755 21.6267 47.342ZM1.70268 6.009C0.910683 6.852 0.861686 8.125 1.59969 9.331C2.68869 11.11 5.27868 12.29 8.70868 11.112C6.69168 8.56 4.36868 6.71 1.70268 6.009Z" fill="var(--fill-0, white)"/>
<path id="Vector_2" d="M26.4107 46.611C26.1097 45.042 19.1957 8.103 32.7947 0.137001L33.0297 0L33.2797 0.107002C34.9447 0.820002 35.7287 2.633 35.2297 4.619C34.5967 7.136 31.9827 9.502 27.5507 9.239C23.0447 22.8 27.4127 46.11 27.4697 46.407L26.4107 46.611ZM27.9287 8.178C31.5547 8.28 33.6747 6.38 34.1827 4.357C34.5267 2.986 34.1007 1.785 33.0937 1.217C30.7577 2.681 29.0927 5.14 27.9287 8.178Z" fill="var(--fill-0, white)"/>
</g>
</svg>
