<svg preserveAspectRatio="none" width="100%" height="100%" overflow="visible" style="display: block;" viewBox="0 0 33.2 33.2" fill="none" xmlns="http://www.w3.org/2000/svg">
<g id="ep:arrow-right-bold">
<path id="Vector" d="M10.9825 3.39471C10.5935 3.78383 10.375 4.31152 10.375 4.86174C10.375 5.41195 10.5935 5.93964 10.9825 6.32876L21.2538 16.6L10.9825 26.8713C10.6046 27.2626 10.3954 27.7868 10.4001 28.3308C10.4049 28.8749 10.6231 29.3953 11.0078 29.78C11.3925 30.1648 11.913 30.383 12.457 30.3877C13.0011 30.3924 13.5252 30.1833 13.9166 29.8053L25.6549 18.067C26.0439 17.6779 26.2624 17.1502 26.2624 16.6C26.2624 16.0498 26.0439 15.5221 25.6549 15.133L13.9166 3.39471C13.5275 3.00571 12.9998 2.78718 12.4496 2.78718C11.8993 2.78718 11.3717 3.00571 10.9825 3.39471V3.39471Z" fill="var(--fill-0, #0958D9)"/>
</g>
</svg>
