<svg preserveAspectRatio="none" width="100%" height="100%" overflow="visible" style="display: block;" viewBox="0 0 257 460" fill="none" xmlns="http://www.w3.org/2000/svg">
<path id="Vector" d="M252.983 72.7387H252.5V27.2872C252.5 23.7036 251.704 20.1551 250.158 16.8443C248.612 13.5336 246.346 10.5254 243.489 7.99148C240.632 5.4576 237.241 3.44768 233.508 2.0765C229.775 0.705315 225.775 -0.00028129 221.735 8.41207e-08H35.265C27.1067 0.000568288 19.2827 2.87571 13.5141 7.99299C7.74548 13.1103 4.50475 20.0505 4.50475 27.2872V72.7387H4.02166C3.49367 72.7379 2.97068 72.8294 2.48263 73.0081C1.99459 73.1868 1.55107 73.4492 1.1775 73.7801C0.803927 74.1111 0.50763 74.5042 0.305576 74.9369C0.103522 75.3696 -0.000317816 75.8334 7.30676e-07 76.3017V107.741C-0.000316806 108.209 0.103367 108.673 0.305119 109.105C0.506871 109.537 0.802737 109.93 1.1758 110.261C1.54886 110.592 1.99179 110.855 2.47928 111.034C2.96677 111.212 3.48925 111.304 4.01683 111.304H4.49992V118.803H4.01683C3.48925 118.803 2.96677 118.895 2.47928 119.074C1.99179 119.253 1.54886 119.515 1.1758 119.846C0.802737 120.177 0.506871 120.57 0.305119 121.002C0.103367 121.435 -0.000316806 121.898 7.30676e-07 122.366V153.805C-0.000316806 154.273 0.103367 154.737 0.305119 155.169C0.506871 155.602 0.802737 155.995 1.1758 156.325C1.54886 156.656 1.99179 156.919 2.47928 157.098C2.96677 157.277 3.48925 157.369 4.01683 157.368H4.49992V432.713C4.49992 436.296 5.2957 439.845 6.84182 443.156C8.38794 446.466 10.6541 449.475 13.511 452.009C16.3678 454.542 19.7593 456.552 23.4919 457.923C27.2245 459.295 31.225 460 35.265 460H221.735C229.894 460 237.718 457.125 243.487 452.008C249.257 446.89 252.498 439.95 252.498 432.713V130.587H252.981C253.509 130.587 254.031 130.496 254.519 130.317C255.007 130.138 255.45 129.876 255.823 129.545C256.197 129.214 256.493 128.821 256.695 128.388C256.897 127.956 257 127.492 257 127.024V76.3017C257 75.8337 256.897 75.3703 256.695 74.9379C256.493 74.5055 256.197 74.1126 255.824 73.7817C255.451 73.4507 255.008 73.1883 254.521 73.0093C254.033 72.8304 253.511 72.7384 252.983 72.7387V72.7387Z" fill="var(--fill-0, #333343)"/>
</svg>
