<svg preserveAspectRatio="none" width="100%" height="100%" overflow="visible" style="display: block;" viewBox="0 0 178.79 125.31" fill="none" xmlns="http://www.w3.org/2000/svg">
<g id="Group">
<path id="Vector" d="M178.79 66.892C178.79 55.039 172.44 44.673 162.958 39C162.884 18.757 146.454 2.369 126.193 2.369C116.729 2.369 108.102 5.947 101.586 11.821C95.628 4.602 86.611 0 76.52 0C64.076 0 53.271 7 47.815 17.275C44.262 15.49 40.253 14.479 36.006 14.479C21.454 14.479 9.656 26.276 9.656 40.828C9.656 43.215 9.979 45.525 10.574 47.723C4.198 51.993 0 59.26 0 67.51C0 76.606 5.104 84.507 12.604 88.513C14.633 99.598 24.335 108.001 36.006 108.001C37.527 108.001 39.014 107.852 40.456 107.579C44.085 116.085 52.523 122.048 62.355 122.048C66.557 122.048 70.502 120.955 73.929 119.043C78.165 122.934 83.814 125.31 90.02 125.31C98.164 125.31 105.35 121.217 109.64 114.978C114.472 120.851 121.797 124.597 129.996 124.597C144.548 124.597 156.345 112.8 156.345 98.248C156.345 98.094 156.336 97.943 156.333 97.79C169.365 93.565 178.79 81.332 178.79 66.892Z" fill="var(--fill-0, #407BFF)"/>
<path id="Vector_2" opacity="0.8" d="M178.79 66.892C178.79 55.039 172.44 44.673 162.958 39C162.884 18.757 146.454 2.369 126.193 2.369C116.729 2.369 108.102 5.947 101.586 11.821C95.628 4.602 86.611 0 76.52 0C64.076 0 53.271 7 47.815 17.275C44.262 15.49 40.253 14.479 36.006 14.479C21.454 14.479 9.656 26.276 9.656 40.828C9.656 43.215 9.979 45.525 10.574 47.723C4.198 51.993 0 59.26 0 67.51C0 76.606 5.104 84.507 12.604 88.513C14.633 99.598 24.335 108.001 36.006 108.001C37.527 108.001 39.014 107.852 40.456 107.579C44.085 116.085 52.523 122.048 62.355 122.048C66.557 122.048 70.502 120.955 73.929 119.043C78.165 122.934 83.814 125.31 90.02 125.31C98.164 125.31 105.35 121.217 109.64 114.978C114.472 120.851 121.797 124.597 129.996 124.597C144.548 124.597 156.345 112.8 156.345 98.248C156.345 98.094 156.336 97.943 156.333 97.79C169.365 93.565 178.79 81.332 178.79 66.892Z" fill="var(--fill-0, white)"/>
</g>
</svg>
