<svg preserveAspectRatio="none" width="100%" height="100%" overflow="visible" style="display: block;" viewBox="0 0 500 346.506" fill="none" xmlns="http://www.w3.org/2000/svg">
<g id="Group">
<path id="Vector" d="M500 327.446H0V327.696H500V327.446Z" fill="var(--fill-0, #EBEBEB)"/>
<path id="Vector_2" d="M449.901 343.542H416.779V343.792H449.901V343.542Z" fill="var(--fill-0, #EBEBEB)"/>
<path id="Vector_3" d="M331.22 346.256H322.527V346.506H331.22V346.256Z" fill="var(--fill-0, #EBEBEB)"/>
<path id="Vector_4" d="M415.778 334.256H396.586V334.506H415.778V334.256Z" fill="var(--fill-0, #EBEBEB)"/>
<path id="Vector_5" d="M95.652 335.936H52.459V336.186H95.652V335.936Z" fill="var(--fill-0, #EBEBEB)"/>
<path id="Vector_6" d="M110.889 335.936H104.556V336.186H110.889V335.936Z" fill="var(--fill-0, #EBEBEB)"/>
<path id="Vector_7" d="M225.147 340.159H131.471V340.409H225.147V340.159Z" fill="var(--fill-0, #EBEBEB)"/>
<path id="Vector_8" d="M237.014 282.848H43.915C40.768 282.848 38.207 280.288 38.207 277.14V5.708C38.207 2.561 40.768 0 43.915 0H237.014C240.16 0 242.721 2.561 242.721 5.708V277.14C242.721 280.287 240.16 282.848 237.014 282.848ZM43.915 0.250999C40.905 0.250999 38.457 2.699 38.457 5.709V277.141C38.457 280.151 40.905 282.599 43.915 282.599H237.014C240.023 282.599 242.471 280.151 242.471 277.141V5.708C242.471 2.699 240.023 0.25 237.014 0.25L43.915 0.250999Z" fill="var(--fill-0, #EBEBEB)"/>
<path id="Vector_9" d="M453.31 282.848H260.212C257.065 282.848 254.505 280.288 254.505 277.14V5.708C254.505 2.561 257.066 0 260.212 0H453.31C456.458 0 459.018 2.561 459.018 5.708V277.14C459.019 280.287 456.458 282.848 453.31 282.848ZM260.212 0.250999C257.203 0.250999 254.755 2.699 254.755 5.709V277.141C254.755 280.151 257.203 282.599 260.212 282.599H453.31C456.32 282.599 458.768 280.151 458.768 277.141V5.708C458.768 2.699 456.32 0.25 453.31 0.25L260.212 0.250999Z" fill="var(--fill-0, #EBEBEB)"/>
</g>
</svg>
