<svg preserveAspectRatio="none" width="100%" height="100%" overflow="visible" style="display: block;" viewBox="0 0 88 88" fill="none" xmlns="http://www.w3.org/2000/svg">
<g id="fluent:calendar-search-16-regular">
<path id="Vector" d="M77 24.75C77 21.1033 75.5513 17.6059 72.9727 15.0273C70.3941 12.4487 66.8967 11 63.25 11H24.75C21.1033 11 17.6059 12.4487 15.0273 15.0273C12.4487 17.6059 11 21.1033 11 24.75V31.669C15.0674 28.9442 19.8543 27.4928 24.75 27.5C30.646 27.5 36.058 29.5625 40.3095 33H71.5V63.25C71.5 65.438 70.6308 67.5365 69.0836 69.0836C67.5365 70.6308 65.438 71.5 63.25 71.5H55.6655L58.0855 73.92C58.982 74.8165 59.631 75.8725 60.0325 77H63.25C66.8967 77 70.3941 75.5514 72.9727 72.9727C75.5513 70.3941 77 66.8967 77 63.25V24.75ZM24.75 27.5H16.5V24.75C16.5 22.562 17.3692 20.4635 18.9164 18.9164C20.4635 17.3692 22.562 16.5 24.75 16.5H63.25C65.438 16.5 67.5365 17.3692 69.0836 18.9164C70.6308 20.4635 71.5 22.562 71.5 24.75V27.5H24.75ZM36.278 67.6665C32.3804 70.581 27.5235 71.9111 22.6847 71.3889C17.846 70.8668 13.3846 68.5312 10.1985 64.8523C7.0124 61.1733 5.33802 56.4241 5.51237 51.5604C5.68672 46.6967 7.69685 42.0796 11.1382 38.6382C14.5796 35.1969 19.1967 33.1867 24.0604 33.0124C28.9241 32.838 33.6733 34.5124 37.3523 37.6985C41.0312 40.8846 43.3668 45.346 43.8889 50.1847C44.4111 55.0235 43.081 59.8804 40.1665 63.778L54.1915 77.803C54.7079 78.3187 54.9983 79.0183 54.9988 79.7481C54.9993 80.4778 54.7099 81.1779 54.1942 81.6943C53.6786 82.2106 52.9789 82.501 52.2492 82.5015C51.5194 82.5021 50.8194 82.2127 50.303 81.697L36.278 67.672V67.6665ZM38.5 52.25C38.5 48.6033 37.0513 45.1059 34.4727 42.5273C31.8941 39.9487 28.3967 38.5 24.75 38.5C21.1033 38.5 17.6059 39.9487 15.0273 42.5273C12.4487 45.1059 11 48.6033 11 52.25C11 55.8967 12.4487 59.3941 15.0273 61.9727C17.6059 64.5514 21.1033 66 24.75 66C28.3967 66 31.8941 64.5514 34.4727 61.9727C37.0513 59.3941 38.5 55.8967 38.5 52.25V52.25Z" fill="var(--fill-0, #0958D9)"/>
</g>
</svg>
