<svg preserveAspectRatio="none" width="100%" height="100%" overflow="visible" style="display: block;" viewBox="0 0 68 68" fill="none" xmlns="http://www.w3.org/2000/svg">
<g id="carbon:text-link-analysis">
<path id="Vector" d="M33.5 21.75V25H17.5V21.75H33.5ZM42 13.25V16.5H17.5V13.25H42ZM42 4.75V8H17.5V4.75H42Z" fill="var(--fill-0, #0958D9)" stroke="var(--stroke-0, #0958D9)"/>
<path id="Vector_2" d="M8.75 4V52.5596L18.0234 36.0742C18.3502 35.4845 18.805 34.9755 19.3545 34.585C19.9046 34.194 20.536 33.9318 21.2012 33.8174C21.8661 33.703 22.5482 33.7393 23.1973 33.9238C23.8465 34.1084 24.4467 34.4365 24.9521 34.8838H24.9512L40.5361 48.4873L55.4014 26.3018L55.541 26.0947L55.748 26.2334L59.2783 28.6006L59.4854 28.7402L59.3467 28.9482L44.541 51.043C44.2164 51.633 43.7647 52.1434 43.2168 52.5352C42.6663 52.9288 42.034 53.1931 41.3672 53.3086C40.7004 53.424 40.016 53.3877 39.3652 53.2021C38.7151 53.0167 38.1146 52.6874 37.6094 52.2383L22.043 38.6484L10.4385 59.25H64V64H8.5C7.30696 63.9988 6.16294 63.5243 5.31934 62.6807C4.47573 61.8371 4.00119 60.693 4 59.5V4H8.75Z" fill="var(--fill-0, #0958D9)" stroke="var(--stroke-0, #0958D9)" stroke-width="0.5"/>
</g>
</svg>
