<svg preserveAspectRatio="none" width="100%" height="100%" overflow="visible" style="display: block;" viewBox="0 0 230.628 189.321" fill="none" xmlns="http://www.w3.org/2000/svg">
<g id="caster1_podcaster-71">
<path id="Vector" d="M105.157 67.8031C105.157 67.8031 134.707 78.3931 141.537 119.383C148.367 160.373 141.467 178.703 182.857 177.783L212.757 175.943V189.153L119.847 189.313L105.157 67.8031Z" fill="var(--fill-0, #68E1FD)"/>
<path id="Vector_2" opacity="0.08" d="M105.157 67.8031C105.157 67.8031 134.707 78.3931 141.537 119.383C148.367 160.373 141.467 178.703 182.857 177.783L212.757 175.943V189.153L119.847 189.313L105.157 67.8031Z" fill="var(--fill-0, #005CF3)"/>
<path id="Vector_3" d="M83.6366 15.4431C83.6366 15.4431 88.0466 24.7831 88.7966 31.8031C89.0966 34.6531 87.0066 37.2431 84.1566 37.5031C80.6166 37.8331 75.7366 37.2431 72.7666 32.5231L66.7366 25.1331C66.7366 25.1331 63.1266 20.3731 67.1266 14.4231C71.1266 8.47307 81.2366 9.61306 83.6366 15.4331V15.4431Z" fill="var(--fill-0, #F4A28C)"/>
<path id="Vector_4" d="M69.0066 26.8331L66.5766 60.5931L85.2766 60.6031L79.6766 36.6531L69.0066 26.8331Z" fill="var(--fill-0, #F4A28C)"/>
<path id="Vector_5" d="M81.3866 16.7331C79.7266 17.4431 76.6166 18.5831 72.2066 19.3531C72.2066 19.3531 76.7966 22.4531 75.4866 28.2131C74.1766 33.9831 68.5166 33.7731 68.5166 33.7731L64.0766 21.2731C62.6666 17.6731 63.3166 13.5731 65.8266 10.6231C66.8466 9.41307 68.0066 8.16306 69.2366 7.05306C72.2866 4.29306 78.4166 4.74306 80.7366 1.13306C81.7566 -0.446939 84.1066 -0.356935 85.0066 1.29307C86.9666 4.87307 88.4966 11.0831 84.1366 15.0431C83.3366 15.7731 82.3966 16.3031 81.4066 16.7231L81.3866 16.7331Z" fill="var(--fill-0, #24285B)"/>
<path id="Vector_6" d="M76.4066 27.5431C76.4066 27.5431 74.9566 23.843 72.2566 25.163C69.5566 26.483 71.6266 31.853 75.6166 30.943L76.3966 27.5431H76.4066Z" fill="var(--fill-0, #F4A28C)"/>
<path id="Vector_7" d="M86.1166 21.4731L90.1966 24.2031C91.2066 24.8831 91.1666 26.3731 90.1266 26.9931L86.6766 29.0631L86.1166 21.4731Z" fill="var(--fill-0, #F4A28C)"/>
<path id="Vector_8" opacity="0.31" d="M79.8366 37.3331C79.8366 37.3331 75.8866 36.6631 73.7466 34.4131C73.7466 34.4131 72.5366 41.7231 81.4466 44.1931L79.8466 37.3331H79.8366Z" fill="var(--fill-0, #CE8172)"/>
<path id="Vector_9" d="M173.347 134.393H164.067V183.873H173.347V134.393Z" fill="var(--fill-0, #FFD200)"/>
<path id="Vector_10" opacity="0.46" d="M173.517 134.393H164.237V183.873H173.517V134.393Z" fill="var(--fill-0, white)"/>
<path id="Vector_11" d="M164.067 175.943L149.157 189.163H188.597L173.347 175.943H164.067Z" fill="var(--fill-0, #FFD200)"/>
<path id="Vector_12" opacity="0.08" d="M163.907 175.943L148.987 189.163H188.427L173.187 175.943H163.907Z" fill="var(--fill-0, #000001)"/>
<path id="Vector_13" d="M66.3266 59.2331H83.4866C83.4866 59.2331 109.597 59.2331 125.697 94.6231C137.227 119.983 126.387 189.153 126.387 189.153H33.2466C33.2466 189.153 -15.1134 71.9031 66.3266 59.2331Z" fill="var(--fill-0, #337DF5)"/>
<path id="Vector_14" d="M183.177 91.8931H154.567V144.943H183.177V91.8931Z" fill="var(--fill-0, #FFD200)"/>
<path id="Vector_15" opacity="0.08" d="M60.1066 86.2531C60.1066 86.2531 79.1166 101.953 67.7366 125.823C56.3566 149.703 44.8066 170.083 76.4066 166.953L116.037 151.083C116.037 151.083 123.627 146.943 123.967 153.493C124.307 160.043 127.417 170.743 108.097 175.913C88.7766 181.083 90.1466 189.303 90.1466 189.303L33.2466 189.143L17.0366 149.343L60.1166 86.2331L60.1066 86.2531Z" fill="var(--fill-0, #000001)"/>
<path id="Vector_16" d="M61.5566 90.723C58.6666 75.553 39.3566 70.5131 28.7966 81.7731C19.3066 91.8931 7.8566 108.133 2.8866 130.973C-6.3134 173.293 7.94659 186.643 24.9666 189.163C41.9866 191.683 109.597 163.163 109.597 163.163L105.157 150.533C105.157 150.533 53.7066 170.283 36.6866 155.573C23.2866 143.983 66.6266 117.313 61.5566 90.7131V90.723Z" fill="var(--fill-0, #68E1FD)"/>
<path id="Vector_17" opacity="0.2" d="M61.5566 90.723C58.6666 75.553 39.3566 70.5131 28.7966 81.7731C19.3066 91.8931 7.8566 108.133 2.8866 130.973C-6.3134 173.293 7.94659 186.643 24.9666 189.163C41.9866 191.683 109.597 163.163 109.597 163.163L105.157 150.533C105.157 150.533 53.7066 170.283 36.6866 155.573C23.2866 143.983 66.6266 117.313 61.5566 90.7131V90.723Z" fill="var(--fill-0, #005CF3)"/>
<path id="Vector_18" d="M105.157 150.543C105.157 150.543 110.057 143.853 117.647 144.313C125.237 144.773 122.477 149.423 118.797 150.543C118.797 150.543 127.307 159.263 109.597 163.173L105.157 150.543Z" fill="var(--fill-0, #F4A28C)"/>
<path id="Vector_19" d="M212.767 180.553C212.767 180.553 232.547 174.313 230.477 189.163H212.767V180.553Z" fill="var(--fill-0, #F4A28C)"/>
<path id="Vector_20" opacity="0.08" d="M183.177 91.8931H154.567V126.963H183.177V91.8931Z" fill="var(--fill-0, #000001)"/>
<path id="Vector_21" opacity="0.08" d="M175.227 177.653L212.767 175.943V189.163H188.597L175.227 177.653Z" fill="var(--fill-0, #000001)"/>
<path id="Vector_22" d="M64.6566 25.2631C64.6566 25.2631 57.7066 12.9731 69.2066 7.05305C69.2066 7.05305 63.4566 15.3831 69.6366 24.8731L64.6566 25.2631Z" fill="var(--fill-0, #68E1FD)"/>
<path id="Vector_23" opacity="0.08" d="M64.6566 25.2631C64.6566 25.2631 57.7066 12.9731 69.2066 7.05305C69.2066 7.05305 63.4566 15.3831 69.6366 24.8731L64.6566 25.2631Z" fill="var(--fill-0, #000001)"/>
<path id="Vector_24" d="M69.6366 37.6931C73.718 37.6931 77.0266 34.3844 77.0266 30.3031C77.0266 26.2217 73.718 22.9131 69.6366 22.9131C65.5552 22.9131 62.2466 26.2217 62.2466 30.3031C62.2466 34.3844 65.5552 37.6931 69.6366 37.6931Z" fill="var(--fill-0, #68E1FD)"/>
</g>
</svg>
