<svg preserveAspectRatio="none" width="100%" height="100%" overflow="visible" style="display: block;" viewBox="0 0 76 76" fill="none" xmlns="http://www.w3.org/2000/svg">
<g id="fluent:design-ideas-16-regular">
<path id="Vector" d="M33.25 52.122C31.6033 51.9394 29.9837 51.5647 28.424 51.0058C28.4715 49.8848 28.5 48.7163 28.5 47.5003V45.8995C29.9725 46.6025 31.5733 47.0918 33.25 47.334V35.6253C33.25 33.7356 34.0007 31.9234 35.3369 30.5872C36.6731 29.251 38.4853 28.5003 40.375 28.5003H52.0838C51.7049 25.8683 50.7003 23.3655 49.1541 21.202C47.608 19.0386 45.5654 17.2776 43.1979 16.0668C40.8304 14.8561 38.2069 14.2309 35.5478 14.2438C32.8887 14.2566 30.2714 14.9072 27.9157 16.1408C27.54 14.5872 26.9212 13.1028 26.0823 11.7423C29.1615 10.2053 32.5664 9.43459 36.0074 9.49565C39.4484 9.5567 42.8238 10.4477 45.8466 12.093C48.8694 13.7382 51.4503 16.089 53.3698 18.9456C55.2893 21.8021 56.4906 25.0799 56.8717 28.5003H64.125C66.0147 28.5003 67.8269 29.251 69.1631 30.5872C70.4993 31.9234 71.25 33.7356 71.25 35.6253V59.3753C71.25 61.265 70.4993 63.0772 69.1631 64.4134C67.8269 65.7496 66.0147 66.5003 64.125 66.5003H40.375C38.4853 66.5003 36.6731 65.7496 35.3369 64.4134C34.0007 63.0772 33.25 61.265 33.25 59.3753V52.122ZM56.8717 33.2503C56.332 38.0696 54.1703 42.5624 50.7412 45.9915C47.3121 49.4206 42.8193 51.5823 38 52.122V59.3753C38 60.0052 38.2502 60.6093 38.6956 61.0547C39.141 61.5001 39.7451 61.7503 40.375 61.7503H64.125C64.7549 61.7503 65.359 61.5001 65.8044 61.0547C66.2498 60.6093 66.5 60.0052 66.5 59.3753V35.6253C66.5 34.9954 66.2498 34.3913 65.8044 33.9459C65.359 33.5005 64.7549 33.2503 64.125 33.2503H56.8717ZM52.0838 33.2503H40.375C39.7451 33.2503 39.141 33.5005 38.6956 33.9459C38.2502 34.3913 38 34.9954 38 35.6253V47.334C41.5529 46.8205 44.8443 45.1714 47.3827 42.633C49.9211 40.0946 51.5702 36.8032 52.0838 33.2503V33.2503ZM22.7763 35.915C22.2775 34.0815 21.47 32.2433 20.083 30.8325C22.325 28.7093 23.75 25.3273 23.75 21.3753C23.75 18.0645 23.0803 15.7893 21.869 13.97C21.3315 13.1876 20.7104 12.4661 20.0165 11.8183C19.7506 11.5615 19.4814 11.3082 19.209 11.0583C18.9193 10.7875 18.6533 10.5405 18.3065 10.1938C17.594 9.48129 17.5133 8.91129 17.5133 8.61204C17.514 8.44571 17.5413 8.28056 17.594 8.12279C17.8112 7.65314 17.869 7.12541 17.7588 6.61987C17.6485 6.11432 17.3761 5.65861 16.9831 5.32205C16.5901 4.98548 16.0979 4.78648 15.5814 4.75529C15.065 4.72411 14.5524 4.86246 14.1218 5.14929L14.1122 5.15404L14.098 5.16354L14.0553 5.19204L13.9127 5.28704C13.2002 5.79525 12.5138 6.33902 11.856 6.91629C10.6685 7.96604 9.12 9.51929 8.02275 11.3718C7.06491 12.9076 6.29617 14.5535 5.73325 16.2738C5.16325 17.979 4.75 19.8268 4.75 21.3753C4.75 25.3273 6.175 28.7045 8.417 30.8373C7.03 32.2433 6.2225 34.0815 5.72375 35.9198C4.75 39.4918 4.75 43.9093 4.75 47.3245V47.5003C4.75 57.2758 6.57875 63.0803 8.64975 66.5335C9.69 68.2625 10.773 69.3788 11.6803 70.0818C12.1637 70.4589 12.6898 70.7777 13.2478 71.0318C13.5704 71.1496 13.9076 71.2231 14.25 71.2503C14.649 71.2503 15.2522 71.0318 15.2522 71.0318C15.8102 70.7777 16.3363 70.4589 16.8197 70.0818C17.7222 69.3788 18.8147 68.2625 19.8502 66.5335C21.9212 63.085 23.75 57.2758 23.75 47.5003V47.3293C23.75 43.9093 23.75 39.4965 22.7763 35.915ZM11.8132 34.1575C12.35 33.616 13.0673 33.2503 14.25 33.2503C15.4375 33.2503 16.15 33.6208 16.6868 34.1528C17.2853 34.756 17.803 35.7345 18.1925 37.1643C18.981 40.0665 19 43.876 19 47.5003C19 56.7248 17.2663 61.6078 15.7748 64.092C15.2048 65.042 14.668 65.6548 14.25 66.0395C13.6528 65.4653 13.1395 64.8096 12.7252 64.092C11.2337 61.603 9.5 56.7248 9.5 47.5003C9.5 43.876 9.519 40.0665 10.3075 37.1643C10.697 35.7393 11.2147 34.756 11.8132 34.1528V34.1575ZM14.25 28.5003C12.4213 28.5003 9.5 26.4673 9.5 21.3753C9.5 20.5535 9.747 19.252 10.241 17.7795C10.6912 16.3894 11.3118 15.0604 12.0888 13.8228C12.502 13.1245 13.0388 12.4453 13.6183 11.823C13.946 12.4025 14.3783 12.9868 14.9483 13.5568C15.295 13.9035 15.7462 14.3215 16.131 14.6825L16.72 15.2335C17.2187 15.718 17.6035 16.1408 17.9122 16.611C18.4822 17.4613 19 18.7485 19 21.3753C19 26.4673 16.0787 28.5003 14.25 28.5003Z" fill="var(--fill-0, #0958D9)"/>
</g>
</svg>
