<svg preserveAspectRatio="none" width="100%" height="100%" overflow="visible" style="display: block;" viewBox="0 0 195.871 188.412" fill="none" xmlns="http://www.w3.org/2000/svg">
<g id="caster2_podcaster-71">
<path id="Vector" d="M111.246 71.2C111.246 71.2 91.6458 72.94 91.6458 89.6C91.6458 101.47 93.3858 129.96 88.5158 148.64C86.0158 158.21 75.6058 163.33 66.4958 159.46L20.5958 139.98C20.5958 139.98 6.39581 133.51 1.26581 137.24C-3.86419 140.97 8.25583 144.88 8.25583 144.88C8.25583 144.88 4.06583 159.53 16.1258 158.16C28.1858 156.79 69.0058 204.07 101.986 182.99C134.966 161.9 136.196 95.69 111.256 71.2H111.246Z" fill="var(--fill-0, #F4A28C)"/>
<path id="Vector_2" opacity="0.08" d="M111.246 71.2C111.246 71.2 91.6458 72.94 91.6458 89.6C91.6458 101.47 93.3858 129.96 88.5158 148.64C86.0158 158.21 75.6058 163.33 66.4958 159.46L20.5958 139.98C20.5958 139.98 6.39581 133.51 1.26581 137.24C-3.86419 140.97 8.25583 144.88 8.25583 144.88C8.25583 144.88 4.06583 159.53 16.1258 158.16C28.1858 156.79 69.0058 204.07 101.986 182.99C134.966 161.9 136.196 95.69 111.256 71.2H111.246Z" fill="var(--fill-0, #000001)"/>
<path id="Vector_3" d="M120.786 12.9C120.786 12.9 116.736 21.47 116.056 27.91C115.776 30.52 117.706 32.9 120.316 33.14C123.566 33.44 128.046 32.9 130.766 28.57L136.296 21.79C136.296 21.79 139.616 17.42 135.936 11.96C132.256 6.5 122.986 7.54001 120.786 12.89V12.9Z" fill="var(--fill-0, #F4A28C)"/>
<path id="Vector_4" d="M134.216 23.36L136.436 54.33L119.276 54.34L124.416 32.36L134.216 23.36Z" fill="var(--fill-0, #F4A28C)"/>
<path id="Vector_5" d="M118.516 18.43L114.776 20.94C113.856 21.56 113.886 22.93 114.836 23.5L117.996 25.4L118.516 18.43Z" fill="var(--fill-0, #F4A28C)"/>
<path id="Vector_6" opacity="0.31" d="M124.276 32.99C124.276 32.99 127.906 32.37 129.866 30.31C129.866 30.31 130.976 37.02 122.806 39.28L124.276 32.99Z" fill="var(--fill-0, #CE8172)"/>
<path id="Vector_7" d="M50.7458 129.49H41.4658V178.97H50.7458V129.49Z" fill="var(--fill-0, #FFD200)"/>
<path id="Vector_8" opacity="0.46" d="M50.9058 129.49H41.6258V178.97H50.9058V129.49Z" fill="var(--fill-0, white)"/>
<path id="Vector_9" d="M41.4658 171.04L26.5458 184.26H65.9858L50.7458 171.04H41.4658Z" fill="var(--fill-0, #FFD200)"/>
<path id="Vector_10" opacity="0.08" d="M41.2958 171.04L26.3858 184.26H65.8258L50.5758 171.04H41.2958Z" fill="var(--fill-0, #000001)"/>
<path id="Vector_11" d="M60.5758 86.99H31.9658V140.04H60.5758V86.99Z" fill="var(--fill-0, #FFD200)"/>
<path id="Vector_12" d="M119.276 54.34C119.276 54.34 85.0558 75.12 84.7158 93.06C84.5258 102.86 88.1458 110.26 91.4658 114.97C95.1458 120.18 97.6358 126.11 98.6658 132.4L99.5558 184.26L174.576 185.86C174.576 185.86 223.396 83.75 155.086 52.7L119.276 54.34Z" fill="var(--fill-0, #005CF3)"/>
<path id="Vector_13" opacity="0.08" d="M165.766 74.53C165.766 74.53 136.446 78.43 143.016 125.16C146.166 147.53 149.696 159.3 114.106 148.6L98.7958 139.72L99.5558 184.26L174.576 185.86L185.606 153.57L165.766 74.54V74.53Z" fill="var(--fill-0, #000001)"/>
<path id="Vector_14" d="M119.276 54.34C119.276 54.34 119.916 68.57 129.906 66.85C139.896 65.13 144.736 62.46 146.456 53.1L119.266 54.34H119.276Z" fill="var(--fill-0, white)"/>
<path id="Vector_15" d="M117.136 13.77L130.146 19.26C130.146 19.26 128.166 33.41 134.156 48.36C138.046 58.07 150.206 61.34 158.616 55.12C162.766 52.05 162.386 45.78 157.946 43.15C151.446 39.3 144.696 32.45 145.936 20.78C148.246 -0.869999 122.936 -8.66 117.136 13.76V13.77Z" fill="var(--fill-0, #24285B)"/>
<path id="Vector_16" d="M157.686 88.43C157.006 72.25 179.286 66.61 186.206 81.26C188.996 87.18 191.236 94.35 192.246 102.94C196.276 137.31 202.796 175.37 174.216 186.77C145.636 198.17 95.9958 138.02 95.9958 138.02L105.546 128.89C105.546 128.89 143.206 158.53 158.766 156.15C169.506 154.51 158.926 117.86 157.686 88.43Z" fill="var(--fill-0, #F4A28C)"/>
<path id="Vector_17" d="M129.236 21.18C129.236 21.18 130.566 17.78 133.046 19C135.526 20.22 133.626 25.14 129.956 24.3L129.236 21.18Z" fill="var(--fill-0, #F4A28C)"/>
<path id="Vector_18" d="M106.326 127.39C106.326 127.39 103.546 119.66 96.2258 114.74C82.7058 105.65 88.6458 117.76 91.9758 120.74C91.9758 120.74 78.7658 125.76 95.5058 138.52L106.336 127.39H106.326Z" fill="var(--fill-0, #F4A28C)"/>
<path id="Vector_19" d="M106.82 125.687L93.2558 140.289L99.1537 145.768L112.718 131.166L106.82 125.687Z" fill="var(--fill-0, #24285B)"/>
<path id="Vector_20" opacity="0.08" d="M60.5758 86.99H31.9658V122.06H60.5758V86.99Z" fill="var(--fill-0, #000001)"/>
<path id="Vector_21" d="M139.146 18.21C139.146 18.21 146.096 5.92 134.596 0C134.596 0 140.346 8.32999 134.166 17.82L139.146 18.21Z" fill="var(--fill-0, #68E1FD)"/>
<path id="Vector_22" opacity="0.08" d="M139.146 18.21C139.146 18.21 146.096 5.92 134.596 0C134.596 0 140.346 8.32999 134.166 17.82L139.146 18.21Z" fill="var(--fill-0, #000001)"/>
<path id="Vector_23" d="M134.166 30.63C138.247 30.63 141.556 27.3214 141.556 23.24C141.556 19.1586 138.247 15.85 134.166 15.85C130.084 15.85 126.776 19.1586 126.776 23.24C126.776 27.3214 130.084 30.63 134.166 30.63Z" fill="var(--fill-0, #68E1FD)"/>
<path id="Vector_24" d="M102.456 141.15C105.466 141.15 107.906 138.71 107.906 135.7C107.906 132.69 105.466 130.25 102.456 130.25C99.4459 130.25 97.0058 132.69 97.0058 135.7C97.0058 138.71 99.4459 141.15 102.456 141.15Z" fill="var(--fill-0, #FFD200)"/>
</g>
</svg>
