<svg preserveAspectRatio="none" width="100%" height="100%" overflow="visible" style="display: block;" viewBox="0 0 60.8071 85.7845" fill="none" xmlns="http://www.w3.org/2000/svg">
<g id="Group">
<path id="Vector" d="M1.15054 32.1198L0.155537 32.2168C0.0185375 30.8058 -0.0284625 29.3808 0.0165375 27.9818L1.01654 28.0138C0.972538 29.3688 1.01754 30.7508 1.15054 32.1198Z" fill="var(--fill-0, #407BFF)"/>
<path id="Vector_2" d="M1.43855 23.8098L0.452545 23.6418C1.23855 19.0278 2.99455 14.7558 5.67155 10.9468L6.48954 11.5218C3.89954 15.2088 2.20055 19.3428 1.43855 23.8098Z" fill="var(--fill-0, #407BFF)"/>
<path id="Vector_3" d="M47.8275 64.4418L26.6685 67.6718C25.1145 67.9088 23.5676 67.0748 22.9046 65.6418C20.3466 60.1088 16.6205 55.0658 11.8295 50.6518C6.55354 45.7908 3.26355 39.1608 2.56555 31.9808C1.06355 16.5348 11.4896 2.96184 26.8186 0.408836C34.5996 -0.895164 42.3765 0.945834 48.7485 5.56483C55.1215 10.1838 59.2865 17.0128 60.4745 24.7938C61.4865 31.4218 60.1715 38.2478 56.7705 44.0128C53.6125 49.3658 51.6085 55.2068 50.8155 61.3728C50.6135 62.9428 49.3845 64.2038 47.8275 64.4418ZM27.1725 2.53583C12.9765 4.89983 3.31954 17.4688 4.71154 31.7728C5.35854 38.4238 8.40555 44.5658 13.2906 49.0668C18.2906 53.6738 22.1836 58.9458 24.8616 64.7378C25.1276 65.3128 25.7225 65.6358 26.3435 65.5408L47.5025 62.3108C48.1145 62.2168 48.5975 61.7188 48.6775 61.0978C49.5085 54.6408 51.6065 48.5248 54.9135 42.9178C58.0625 37.5788 59.2805 31.2578 58.3435 25.1188C57.2435 17.9128 53.3865 11.5878 47.4835 7.30984C41.5825 3.03384 34.3695 1.35583 27.1725 2.53583Z" fill="var(--fill-0, #407BFF)"/>
<path id="Vector_4" d="M46.8336 83.6838L33.3616 85.7409C31.2986 86.0559 29.3655 84.6338 29.0505 82.5718L28.9965 82.2188C28.9335 81.8028 28.9395 81.3828 29.0155 80.9738C28.3305 80.3748 27.8666 79.5488 27.7276 78.6408L27.7035 78.4848C27.6285 77.9908 27.6486 77.4948 27.7626 77.0158C27.1076 76.4138 26.6735 75.6078 26.5365 74.7098C26.2065 72.5498 27.6955 70.5248 29.8555 70.1948L45.5406 67.7998C47.7006 67.4698 49.7256 68.9588 50.0556 71.1178C50.1926 72.0158 50.0185 72.9138 49.5735 73.6838C49.8245 74.1068 49.9926 74.5748 50.0686 75.0678L50.0925 75.2238C50.2315 76.1318 50.0346 77.0588 49.5596 77.8348C49.7536 78.2028 49.8856 78.6018 49.9496 79.0178L50.0036 79.3708C50.3176 81.4348 48.8956 83.3688 46.8336 83.6838ZM30.1806 72.3258C29.1956 72.4758 28.5165 73.3998 28.6665 74.3848C28.7505 74.9338 29.0815 75.4079 29.5755 75.6849L30.4805 76.1928L30.0065 77.1159C29.8385 77.4429 29.7785 77.8028 29.8325 78.1578L29.8565 78.3138C29.9385 78.8508 30.2805 79.3248 30.7715 79.5818L31.6745 80.0548L31.2536 80.9828C31.1226 81.2708 31.0785 81.5848 31.1255 81.8928L31.1795 82.2458C31.3145 83.1328 32.1475 83.7448 33.0345 83.6088L46.5065 81.5518C47.3935 81.4168 48.0055 80.5838 47.8705 79.6968L47.8165 79.3438C47.7695 79.0358 47.6335 78.7498 47.4225 78.5138L46.7435 77.7539L47.4646 77.0338C47.8566 76.6418 48.0415 76.0878 47.9595 75.5508L47.9355 75.3948C47.8815 75.0398 47.7165 74.7138 47.4595 74.4528L46.7305 73.7118L47.4436 72.9568C47.8326 72.5458 48.0076 71.9938 47.9236 71.4448C47.7736 70.4598 46.8495 69.7808 45.8645 69.9318L30.1806 72.3258Z" fill="var(--fill-0, #407BFF)"/>
</g>
</svg>
