<svg preserveAspectRatio="none" width="100%" height="100%" overflow="visible" style="display: block;" viewBox="0 0 110.618 310.384" fill="none" xmlns="http://www.w3.org/2000/svg">
<g id="Group">
<path id="Vector" d="M24.5405 297.418L16.8675 295.603L21.1135 277.163L28.7865 278.978L24.5405 297.418Z" fill="var(--fill-0, #B55B52)"/>
<path id="Vector_2" d="M83.4665 302.188H75.4405L74.4925 283.6H82.5195L83.4665 302.188Z" fill="var(--fill-0, #B55B52)"/>
<path id="Vector_3" d="M74.1285 301.259H83.9145C84.2425 301.259 84.5265 301.487 84.5975 301.807L86.1825 308.942C86.3475 309.682 85.7655 310.382 85.0075 310.369C81.8595 310.315 79.5615 310.13 75.5955 310.13C73.1555 310.13 67.7925 310.384 64.4225 310.384C61.1275 310.384 60.6135 307.053 61.9925 306.751C68.1765 305.398 70.8435 303.532 72.8235 301.753C73.1825 301.431 73.6485 301.259 74.1285 301.259Z" fill="var(--fill-0, #263238)"/>
<path id="Vector_4" d="M16.5035 294.667L25.0395 296.661C25.3585 296.736 25.5835 297.022 25.5805 297.35L25.5015 304.658C25.4935 305.416 24.7875 305.971 24.0525 305.786C20.9855 305.014 16.5785 303.795 12.7075 302.891C8.18249 301.834 8.09248 302.01 2.78648 300.77C-0.422519 300.02 -0.555527 296.568 0.856473 296.588C7.28347 296.679 8.43348 296.86 14.4785 294.836C15.1355 294.616 15.8295 294.509 16.5035 294.667Z" fill="var(--fill-0, #263238)"/>
<path id="Vector_5" d="M57.8445 54.8668C54.2065 59.7728 50.7775 64.7188 47.4535 69.8108C45.7985 72.3548 44.1575 74.9148 42.5815 77.5308C40.9865 80.1318 39.4355 82.7768 37.9515 85.5028L37.3945 86.5258L37.1155 87.0368L36.6795 87.8998C36.3845 88.5858 36.0905 89.2818 35.9035 90.3478C35.7315 91.3568 35.6605 92.7388 36.2145 94.2528C36.7465 95.7558 37.8295 96.9408 38.7545 97.5908C39.6975 98.2688 40.5405 98.6058 41.2335 98.8238L48.7595 89.2778C51.5615 85.0408 54.4975 80.8028 57.4615 76.5828L67.6905 62.0148L57.8445 54.8668Z" fill="var(--fill-0, #B65B52)"/>
<path id="Vector_6" opacity="0.2" d="M21.1145 277.168L18.9235 286.673L26.6005 288.489L28.7905 278.984L21.1145 277.168Z" fill="var(--fill-0, black)"/>
<g id="Group_2">
<path id="Vector_7" d="M72.9165 56.6088C75.0965 63.9668 62.2055 78.0738 62.2055 78.0738L46.6005 68.1448C46.6005 68.1448 49.7995 62.6208 55.8485 54.7598C62.4365 46.1978 70.2745 47.6948 72.9165 56.6088Z" fill="var(--fill-0, #407BFF)"/>
<path id="Vector_8" opacity="0.4" d="M72.9165 56.6088C75.0965 63.9668 62.2055 78.0738 62.2055 78.0738L46.6005 68.1448C46.6005 68.1448 49.7995 62.6208 55.8485 54.7598C62.4365 46.1978 70.2745 47.6948 72.9165 56.6088Z" fill="var(--fill-0, black)"/>
</g>
<path id="Vector_9" opacity="0.2" d="M82.5215 283.605H74.4915L74.9835 293.186H83.0135L82.5215 283.605Z" fill="var(--fill-0, black)"/>
<g id="Group_3">
<path id="Vector_10" d="M105.697 59.4018C96.2885 88.0148 95.4785 117.77 94.5275 123.99C88.2675 123.327 64.6915 120.785 51.8395 119.397C48.4475 81.4998 57.9845 58.3098 61.3935 51.4068C62.0705 50.0358 63.4055 49.1208 64.9295 48.9988C66.0425 48.9098 67.4805 48.8158 69.0995 48.7638C70.2795 48.7258 71.5495 48.7078 72.8705 48.7308C73.6005 48.7378 74.3395 48.7658 75.0895 48.8038C79.9265 49.0618 87.7645 50.3808 93.1535 51.4248C94.2815 51.6458 95.4295 51.8978 96.5365 52.1588C97.5645 52.4088 98.5715 52.6688 99.5195 52.9288C100.718 53.2558 101.839 53.5848 102.833 53.8868C105.167 54.5978 106.459 57.0828 105.697 59.4018Z" fill="var(--fill-0, #407BFF)"/>
<path id="Vector_11" opacity="0.3" d="M105.697 59.4018C96.2885 88.0148 95.4785 117.77 94.5275 123.99C88.2675 123.327 64.6915 120.785 51.8395 119.397C48.4475 81.4998 57.9845 58.3098 61.3935 51.4068C62.0705 50.0358 63.4055 49.1208 64.9295 48.9988C66.0425 48.9098 67.4805 48.8158 69.0995 48.7638C70.2795 48.7258 71.5495 48.7078 72.8705 48.7308C73.6005 48.7378 74.3395 48.7658 75.0895 48.8038C79.9265 49.0618 87.7645 50.3808 93.1535 51.4248C94.2815 51.6458 95.4295 51.8978 96.5365 52.1588C97.5645 52.4088 98.5715 52.6688 99.5195 52.9288C100.718 53.2558 101.839 53.5848 102.833 53.8868C105.167 54.5978 106.459 57.0828 105.697 59.4018Z" fill="var(--fill-0, black)"/>
</g>
<path id="Vector_12" d="M72.5615 48.7308C72.6615 48.7278 72.7715 48.7348 72.8725 48.7328C73.6045 48.7338 74.3435 48.7648 75.0925 48.8078C79.9265 49.0648 87.7635 50.3838 93.1545 51.4228C94.0245 51.5938 94.8935 51.7848 95.7515 51.9848L94.3455 53.0298C90.1805 56.1168 85.3845 58.9098 78.6005 58.4358C78.3115 58.4158 78.0215 58.3958 77.7335 58.3658C74.2815 57.9838 72.1455 56.7028 71.3655 54.5328C70.6525 52.5368 71.3915 50.4138 72.5615 48.7308Z" fill="var(--fill-0, #407BFF)"/>
<path id="Vector_13" d="M94.3095 30.8248C92.3275 36.4708 89.6465 46.9538 93.1495 51.4218C89.5355 54.1028 84.8805 57.1318 77.9445 56.3738C71.0085 55.6158 72.9025 51.0438 75.0885 48.8038C81.7935 48.1958 82.3235 43.3638 81.8495 38.6848L94.3095 30.8248Z" fill="var(--fill-0, #B55B52)"/>
<path id="Vector_14" opacity="0.2" d="M89.2295 34.0318L81.8555 38.6788C81.9715 39.7868 82.0245 40.9008 81.9475 41.9658C84.4745 41.9668 88.2695 39.7428 88.9085 37.1888C89.2275 35.9148 89.3525 34.6648 89.2295 34.0318Z" fill="var(--fill-0, black)"/>
<path id="Vector_15" d="M81.5255 22.2528L84.4765 22.6598C88.2565 22.5658 95.2275 14.9588 92.7195 8.37878C84.2755 6.91178 75.4215 11.0858 81.5255 22.2528Z" fill="var(--fill-0, #263238)"/>
<path id="Vector_16" d="M99.9575 26.3718C95.8205 33.1798 93.7445 37.3738 88.2895 39.1138C80.0845 41.7308 73.0965 33.9348 75.1175 26.0288C76.9355 18.9118 83.3955 8.97478 91.7565 9.80178C99.9935 10.6168 104.094 19.5648 99.9575 26.3718Z" fill="var(--fill-0, #B55B52)"/>
<path id="Vector_17" d="M104.752 16.3658L101.774 16.4368C98.0585 17.1338 92.3935 25.7578 95.9225 31.8528C104.365 33.3038 114.693 25.4218 104.752 16.3658Z" fill="var(--fill-0, #263238)"/>
<path id="Vector_18" d="M99.6175 19.2178C91.9535 17.5958 84.5145 8.79478 84.8945 3.34778C85.2965 -2.41622 93.3845 0.627783 94.9035 2.44678C94.6645 -0.732217 96.9175 0.0177792 98.4285 1.96778C99.9395 3.91778 101.872 10.9378 107.648 16.0608C111.497 19.4748 108.382 21.0718 99.6175 19.2178Z" fill="var(--fill-0, #263238)"/>
<path id="Vector_19" d="M106.582 19.1178C106.582 19.1178 109.776 20.3958 110.526 19.3678C111.11 21.6038 108.804 21.3398 106.582 19.1178Z" fill="var(--fill-0, #263238)"/>
<path id="Vector_20" d="M99.0505 35.7998C97.2005 36.8918 95.0195 37.0268 93.3175 36.5588C90.7575 35.8548 90.8385 33.2358 92.6905 31.5328C94.3575 29.9998 97.6975 28.5188 99.7185 30.1388C101.71 31.7358 101.165 34.5518 99.0505 35.7998Z" fill="var(--fill-0, #B55B52)"/>
<path id="Vector_21" d="M52.7795 205.125C57.8775 188.027 79.9015 122.42 79.9015 122.42L51.8395 119.4C51.8395 119.4 35.8575 178 31.7905 202.158C27.5585 227.276 16.1825 282.453 16.1825 282.453L29.9005 286.232C29.9005 286.232 47.6815 222.223 52.7795 205.125Z" fill="var(--fill-0, #407BFF)"/>
<path id="Vector_22" opacity="0.2" d="M69.4435 138.652C62.5155 149.435 58.9465 173.114 58.7005 186.41C63.2585 172.383 69.1625 154.592 73.5765 141.337C71.8105 140.071 70.2005 139.006 69.4435 138.652Z" fill="var(--fill-0, black)"/>
<path id="Vector_23" d="M66.9795 121.03C66.9795 121.03 64.6925 186.938 65.6175 210.439C66.6305 236.174 71.2905 291.331 71.2905 291.331H85.9925C85.9925 291.331 84.6265 236.39 85.8185 211.306C87.1755 182.734 94.5235 123.997 94.5235 123.997L66.9795 121.03Z" fill="var(--fill-0, #407BFF)"/>
<g id="Group_4">
<path id="Vector_24" d="M70.0855 291.649H87.3975V286.477L69.2015 285.646L70.0855 291.649Z" fill="var(--fill-0, #407BFF)"/>
<path id="Vector_25" opacity="0.5" d="M70.0855 291.649H87.3975V286.477L69.2015 285.646L70.0855 291.649Z" fill="var(--fill-0, white)"/>
</g>
<g id="Group_5">
<path id="Vector_26" d="M14.6435 284.1L30.4155 287.784L31.6065 282.688L15.5855 278.076L14.6435 284.1Z" fill="var(--fill-0, #407BFF)"/>
<path id="Vector_27" opacity="0.5" d="M14.6435 284.1L30.4155 287.784L31.6065 282.688L15.5855 278.076L14.6435 284.1Z" fill="var(--fill-0, white)"/>
</g>
<path id="Vector_28" d="M88.2505 22.7188C87.9485 23.2918 87.4005 23.5958 87.0265 23.3988C86.6515 23.2018 86.5925 22.5768 86.8945 22.0048C87.1965 21.4328 87.7445 21.1278 88.1185 21.3248C88.4935 21.5208 88.5525 22.1458 88.2505 22.7188Z" fill="var(--fill-0, #263238)"/>
<path id="Vector_29" d="M81.7755 19.3078C81.4735 19.8808 80.9255 20.1848 80.5515 19.9878C80.1775 19.7908 80.1185 19.1668 80.4195 18.5938C80.7215 18.0208 81.2695 17.7168 81.6435 17.9138C82.0185 18.1108 82.0775 18.7358 81.7755 19.3078Z" fill="var(--fill-0, #263238)"/>
<path id="Vector_30" d="M83.6845 20.6778C83.6845 20.6778 80.6415 23.2968 78.3675 24.1358C78.8825 25.6158 80.8335 26.0908 80.8335 26.0908L83.6845 20.6778Z" fill="var(--fill-0, #A02724)"/>
<path id="Vector_31" d="M82.4405 28.8948C84.7745 29.7488 86.5815 28.7678 86.6655 28.7218C86.7575 28.6708 86.7895 28.5548 86.7385 28.4638C86.6875 28.3718 86.5715 28.3388 86.4805 28.3898C86.4595 28.4018 84.3535 29.5358 81.8465 28.2148C81.7535 28.1668 81.6385 28.2018 81.5895 28.2948C81.5405 28.3878 81.5765 28.5028 81.6695 28.5518C81.9315 28.6888 82.1895 28.8028 82.4405 28.8948Z" fill="var(--fill-0, #263238)"/>
<path id="Vector_32" d="M92.7675 19.9968C92.8275 20.0188 92.8925 20.0258 92.9595 20.0148C93.1665 19.9808 93.3075 19.7848 93.2735 19.5778C92.9325 17.5018 91.3335 16.7768 91.2655 16.7468C91.0735 16.6618 90.8485 16.7498 90.7645 16.9418C90.6805 17.1338 90.7665 17.3568 90.9575 17.4418C91.0105 17.4658 92.2505 18.0448 92.5225 19.7008C92.5455 19.8418 92.6425 19.9518 92.7675 19.9968Z" fill="var(--fill-0, #263238)"/>
<path id="Vector_33" d="M83.9055 15.2898C83.8115 15.2098 83.6805 15.1778 83.5535 15.2138C81.9405 15.6788 80.8855 14.8068 80.8415 14.7698C80.6815 14.6348 80.4425 14.6538 80.3065 14.8128C80.1705 14.9718 80.1875 15.2098 80.3465 15.3468C80.4055 15.3948 81.7445 16.5278 83.7645 15.9448C83.9665 15.8868 84.0825 15.6758 84.0245 15.4738C84.0035 15.3998 83.9605 15.3368 83.9055 15.2898Z" fill="var(--fill-0, #263238)"/>
<g id="Group_6">
<path id="Vector_34" d="M71.4735 302.661C72.2155 302.661 73.0165 302.507 73.5745 302.372C73.6485 302.354 73.7055 302.293 73.7175 302.218C73.7295 302.142 73.6955 302.067 73.6305 302.026C73.3385 301.843 70.7485 300.253 69.8615 300.709C69.7235 300.78 69.5555 300.93 69.5355 301.247C69.5085 301.672 69.6415 302.01 69.9285 302.252C70.2915 302.557 70.8625 302.661 71.4735 302.661ZM73.0225 302.106C71.6595 302.379 70.6115 302.33 70.1725 301.961C69.9795 301.799 69.8955 301.574 69.9145 301.271C69.9235 301.123 69.9835 301.074 70.0345 301.048C70.4955 300.811 71.9705 301.497 73.0225 302.106Z" fill="var(--fill-0, #407BFF)"/>
<path id="Vector_35" d="M73.5295 302.378C73.5655 302.378 73.6015 302.368 73.6325 302.347C73.6915 302.309 73.7245 302.242 73.7185 302.173C73.7105 302.075 73.5195 299.759 72.5865 298.997C72.3435 298.799 72.0705 298.716 71.7765 298.752C71.3225 298.808 71.2025 299.088 71.1715 299.25C71.0015 300.145 72.6075 301.903 73.4385 302.354C73.4665 302.371 73.4985 302.378 73.5295 302.378ZM71.9095 299.125C72.0655 299.125 72.2095 299.18 72.3465 299.292C72.9445 299.78 73.2005 301.13 73.2945 301.807C72.4685 301.18 71.4455 299.851 71.5465 299.323C71.5555 299.275 71.5775 299.162 71.8235 299.131C71.8525 299.126 71.8805 299.125 71.9095 299.125Z" fill="var(--fill-0, #407BFF)"/>
<path id="Vector_36" d="M15.4825 295.567C15.5525 295.56 15.6145 295.514 15.6405 295.447C15.6695 295.372 15.6485 295.286 15.5865 295.234C15.2745 294.968 12.5045 292.641 11.4315 292.948C11.2245 293.007 11.0785 293.153 11.0105 293.369C10.8965 293.731 10.9425 294.062 11.1475 294.35C11.8275 295.309 14.1395 295.525 15.4575 295.568C15.4655 295.568 15.4735 295.568 15.4825 295.567ZM11.6095 293.299C12.2465 293.233 13.7985 294.28 14.8995 295.161C13.1065 295.045 11.8375 294.669 11.4565 294.131C11.3225 293.942 11.2945 293.73 11.3725 293.484C11.4025 293.389 11.4515 293.338 11.5355 293.314C11.5585 293.306 11.5835 293.301 11.6095 293.299Z" fill="var(--fill-0, #407BFF)"/>
<path id="Vector_37" d="M15.4825 295.567C15.5005 295.565 15.5185 295.561 15.5355 295.554C15.5985 295.528 15.6425 295.471 15.6515 295.404C15.6635 295.313 15.9445 293.158 15.1415 292.11C14.8965 291.79 14.5755 291.603 14.1895 291.553C13.6685 291.486 13.4615 291.71 13.3795 291.909C13.0295 292.76 14.5045 294.886 15.3495 295.53C15.3865 295.559 15.4345 295.572 15.4825 295.567ZM13.9415 291.923C13.9935 291.918 14.0585 291.918 14.1395 291.929C14.4265 291.966 14.6555 292.101 14.8385 292.34C15.3665 293.029 15.3505 294.353 15.3075 294.991C14.4795 294.188 13.5195 292.563 13.7295 292.052C13.7425 292.021 13.7755 291.94 13.9415 291.923Z" fill="var(--fill-0, #407BFF)"/>
</g>
<g id="Group_7">
<path id="Vector_38" d="M107.966 66.2198C107.176 67.7138 106.427 68.9768 105.608 70.3028C104.798 71.6078 104.002 72.9158 103.136 74.1778C101.435 76.7208 99.6275 79.1878 97.7465 81.6058C95.8485 84.0088 93.8835 86.3688 91.7855 88.6258L90.9715 89.5178C90.4965 90.0408 89.9165 90.6238 89.0195 91.2148C88.5485 91.5128 88.0275 91.8018 87.3445 92.0388C86.6735 92.2728 85.8825 92.4338 85.0535 92.4398C83.3625 92.4638 81.8485 91.7998 80.9535 91.1678C80.0065 90.5138 79.4595 89.8908 78.9985 89.3208C78.5545 88.7528 78.2335 88.2368 77.9545 87.7458C77.4065 86.7668 77.0385 85.8898 76.7145 85.0398C75.4815 81.6788 74.8785 78.6548 74.3435 75.5888C73.8145 72.5448 73.4435 69.5348 73.1495 66.5308C72.5615 60.5188 72.2835 54.5758 72.2795 48.5468L78.2845 48.0308C79.3645 53.7498 80.5025 59.5268 81.7415 65.1718C82.3725 67.9938 83.0365 70.7958 83.7735 73.5138C84.5275 76.1978 85.3525 78.9248 86.3445 81.0348C86.5875 81.5458 86.8455 82.0078 87.0545 82.2958C87.1555 82.4368 87.2455 82.5358 87.2685 82.5388C87.2795 82.5328 87.2495 82.4478 86.9195 82.2008C86.6305 81.9828 85.8415 81.5848 84.8915 81.6008C83.9415 81.6018 83.2625 81.9478 82.9905 82.1208C82.7055 82.2988 82.6595 82.3648 82.6675 82.3318L83.2695 81.5238C84.9565 79.2558 86.6195 76.9588 88.2055 74.6018C89.8145 72.2618 91.3665 69.8778 92.8955 67.4838L95.1655 63.8868L97.3085 60.3508L107.966 66.2198Z" fill="var(--fill-0, #B65B52)"/>
<path id="Vector_39" d="M41.2325 98.8228C42.6635 99.2668 43.7305 99.3408 44.7455 99.3978C46.7435 99.4708 48.4345 99.3108 50.0875 99.0718C51.7335 98.8348 53.3065 98.5278 54.8535 98.1878C61.0225 96.7678 66.7755 94.8208 72.5085 92.4708L71.2085 86.7158C68.3165 87.1608 64.9645 87.6158 62.0525 88.0038C59.1385 88.4088 56.2375 88.7908 53.3975 89.0278C51.9825 89.1588 50.5785 89.2518 49.2355 89.2738C49.0745 89.2758 48.9175 89.2748 48.7575 89.2758" fill="var(--fill-0, #B65B52)"/>
<path id="Vector_40" d="M69.4695 86.9698L75.8995 85.6048L77.2935 95.1278C77.2935 95.1278 70.1555 96.2278 67.9725 90.8058L69.4695 86.9698Z" fill="var(--fill-0, #B55B52)"/>
<path id="Vector_41" d="M83.1505 88.5678L81.9185 94.4168L77.2935 95.1278L75.8995 85.6048L83.1505 88.5678Z" fill="var(--fill-0, #B55B52)"/>
<g id="Group_8">
<path id="Vector_42" d="M109.299 59.9368C112.765 66.7838 102.615 82.9768 102.615 82.9768L85.4815 76.0098C85.4815 76.0098 87.6365 70.0008 92.1765 61.1828C97.1205 51.5758 105.101 51.6418 109.299 59.9368Z" fill="var(--fill-0, #407BFF)"/>
<path id="Vector_43" opacity="0.3" d="M109.299 59.9368C112.765 66.7838 102.615 82.9768 102.615 82.9768L85.4815 76.0098C85.4815 76.0098 87.6365 70.0008 92.1765 61.1828C97.1205 51.5758 105.101 51.6418 109.299 59.9368Z" fill="var(--fill-0, black)"/>
</g>
<path id="Vector_44" d="M79.0745 49.9488L79.6705 41.8178L70.2045 43.5228C70.2045 43.5228 70.5495 50.9828 74.4865 51.5778L79.0745 49.9488Z" fill="var(--fill-0, #B55B52)"/>
<path id="Vector_45" d="M76.9015 34.1788L68.8405 37.1238L70.2045 43.5228L79.6705 41.8178L76.9015 34.1788Z" fill="var(--fill-0, #B55B52)"/>
</g>
</g>
</svg>
