<svg preserveAspectRatio="none" width="100%" height="100%" overflow="visible" style="display: block;" viewBox="0 0 82 82" fill="none" xmlns="http://www.w3.org/2000/svg">
<g id="icons8:idea">
<path id="Vector" d="M17.4583 6.16504L13.8503 9.76791L19.2188 15.1338L22.8216 11.5309L17.4557 6.16504H17.4583ZM64.5442 6.16504L59.1758 11.5309L62.7812 15.1338L68.1471 9.77048L64.5417 6.16504H64.5442ZM41 7.76404C40.1544 7.77429 39.2985 7.82298 38.4375 7.92804C38.4119 7.92804 38.3863 7.92291 38.3606 7.92804C27.9671 9.1196 19.6954 17.5169 18.2578 27.8643C17.1098 36.1924 20.5436 43.7441 26.2656 48.6077C28.6062 50.6053 30.1894 53.3465 30.75 56.3721V71.7471H36.5925C37.4842 73.2769 39.1114 74.3096 41 74.3096C42.8886 74.3096 44.5157 73.2769 45.4075 71.7471H51.25V61.4971H51.4909V58.4529C51.4909 54.6962 53.4435 50.9089 56.6159 47.9645C60.8594 43.7159 64.0625 37.6812 64.0625 30.7497C64.0625 18.0909 53.6434 7.64616 41 7.76404V7.76404ZM41 12.889C50.9041 12.7507 58.9375 20.8584 58.9375 30.7497C58.9375 36.1155 56.4519 40.8408 53.0104 44.2797L53.0924 44.3617C49.6725 47.5153 47.461 51.7642 46.8399 56.3747H35.6316C35.0678 51.9825 33.1844 47.7314 29.6251 44.682C25.0971 40.8382 22.3988 35.047 23.3008 28.5075C24.4206 20.4356 30.9704 13.9448 38.9961 13.0556C39.6587 12.9632 40.3261 12.9085 40.9949 12.8916L41 12.889ZM5.125 30.7497V35.8747H12.8125V30.7497H5.125ZM69.1875 30.7497V35.8747H76.875V30.7497H69.1875ZM19.2188 51.4905L13.8529 56.8539L17.4583 60.4593L22.8191 55.0934L19.2188 51.4905ZM62.7812 51.4905L59.1784 55.0934L64.5417 60.4593L68.1471 56.8539L62.7812 51.4905ZM35.875 61.4997H46.125V66.6247H35.875V61.4997Z" fill="var(--fill-0, #0958D9)"/>
</g>
</svg>
