<svg preserveAspectRatio="none" width="100%" height="100%" overflow="visible" style="display: block;" viewBox="0 0 219.37 131.82" fill="none" xmlns="http://www.w3.org/2000/svg">
<g id="chats_podcaster-71">
<path id="Vector" d="M77.55 98.36C104.711 98.36 126.73 76.3414 126.73 49.18C126.73 22.0186 104.711 0 77.55 0C50.3886 0 28.37 22.0186 28.37 49.18C28.37 76.3414 50.3886 98.36 77.55 98.36Z" fill="var(--fill-0, #24285B)"/>
<path id="Vector_2" opacity="0.24" d="M80.56 98.27C80.56 98.27 69.92 41.3 120.25 24.77C120.25 24.77 123.68 30.59 125.09 36.54L94.74 95.27C94.74 95.27 86.78 98.28 80.55 98.27H80.56Z" fill="var(--fill-0, #000001)"/>
<path id="Vector_3" d="M142.28 131.82C169.441 131.82 191.46 109.801 191.46 82.64C191.46 55.4786 169.441 33.46 142.28 33.46C115.119 33.46 93.1 55.4786 93.1 82.64C93.1 109.801 115.119 131.82 142.28 131.82Z" fill="var(--fill-0, #24285B)"/>
<path id="Vector_4" d="M33.86 71.74L0 96.16L47.02 87.72L33.86 71.74Z" fill="var(--fill-0, #24285B)"/>
<path id="Vector_5" d="M185.52 92.44L219.37 116.86L172.35 108.42L185.52 92.44Z" fill="var(--fill-0, #24285B)"/>
<path id="Vector_6" d="M120.25 90.57C124.409 90.57 127.78 87.1987 127.78 83.04C127.78 78.8813 124.409 75.51 120.25 75.51C116.091 75.51 112.72 78.8813 112.72 83.04C112.72 87.1987 116.091 90.57 120.25 90.57Z" fill="var(--fill-0, #FFD200)"/>
<path id="Vector_7" d="M144.06 90.57C148.219 90.57 151.59 87.1987 151.59 83.04C151.59 78.8813 148.219 75.51 144.06 75.51C139.901 75.51 136.53 78.8813 136.53 83.04C136.53 87.1987 139.901 90.57 144.06 90.57Z" fill="var(--fill-0, #FFD200)"/>
<path id="Vector_8" d="M167.04 90.57C171.199 90.57 174.57 87.1987 174.57 83.04C174.57 78.8813 171.199 75.51 167.04 75.51C162.881 75.51 159.51 78.8813 159.51 83.04C159.51 87.1987 162.881 90.57 167.04 90.57Z" fill="var(--fill-0, #FFD200)"/>
<path id="Vector_9" d="M54.16 57.78C58.3187 57.78 61.69 54.4087 61.69 50.25C61.69 46.0913 58.3187 42.72 54.16 42.72C50.0013 42.72 46.63 46.0913 46.63 50.25C46.63 54.4087 50.0013 57.78 54.16 57.78Z" fill="var(--fill-0, #005CF3)"/>
<path id="Vector_10" d="M77.97 57.78C82.1287 57.78 85.5 54.4087 85.5 50.25C85.5 46.0913 82.1287 42.72 77.97 42.72C73.8113 42.72 70.44 46.0913 70.44 50.25C70.44 54.4087 73.8113 57.78 77.97 57.78Z" fill="var(--fill-0, #005CF3)"/>
<path id="Vector_11" d="M100.95 57.78C105.109 57.78 108.48 54.4087 108.48 50.25C108.48 46.0913 105.109 42.72 100.95 42.72C96.7913 42.72 93.42 46.0913 93.42 50.25C93.42 54.4087 96.7913 57.78 100.95 57.78Z" fill="var(--fill-0, #005CF3)"/>
</g>
</svg>
