<svg preserveAspectRatio="none" width="100%" height="100%" overflow="visible" style="display: block;" viewBox="0 0 500 500" fill="none" xmlns="http://www.w3.org/2000/svg">
<g id="reminder-note-1-62 1">
<path id="field_reminder-note-1-62" d="M243.2 430.1L28.6 303.2C21.8 299.4 15.9 293.1 22.6 288.9L238 164.8C241.2 162.8 246.1 161.5 249.4 163.4L474.7 294.1C481.5 298.1 482.8 309.1 475.9 313.1L271.5 429.9C262.7 434.9 252 435 243.2 430.1Z" fill="var(--fill-0, #005CF3)"/>
<g id="plant_reminder-note-1-62">
<g id="Vector">
</g>
<path id="Vector_2" d="M106.5 285.4C106.5 294.7 95.8 302.2 82.7 302.2C69.6 302.2 58.9 294.7 58.9 285.4C58.9 276.1 69.6 268.6 82.7 268.6C95.8 268.6 106.5 276.2 106.5 285.4Z" fill="var(--fill-0, #B7D0FA)" fill-opacity="0.92"/>
<path id="Vector_3" d="M82.7 282.8C92.5307 282.8 100.5 279.532 100.5 275.5C100.5 271.468 92.5307 268.2 82.7 268.2C72.8693 268.2 64.9 271.468 64.9 275.5C64.9 279.532 72.8693 282.8 82.7 282.8Z" fill="var(--fill-0, #7F3500)"/>
<path id="Vector_4" d="M82 263.3C82 260 81.9 256.7 81.6 253.4C81.5 252.5 81.5 251.7 81.4 250.8C81.4 250.7 81.3 249.6 81.2 249.1C81.1 248.6 80.9 247.3 80.9 247.4C80.8 246.7 80.7 246.1 80.6 245.4C78.7 234.2 74.3 223.6 67.9 214.3C65.5 220.1 64.3 226.3 64.4 232.5C64.4 234.3 64.5 236.1 64.7 237.9C64.7 238.4 64.7 238.6 64.8 238.7C64.9 238.8 64.8 238.6 64.9 239C65.1 239.9 65.2 240.8 65.4 241.6C66.1 245 67 248.3 68.2 251.5C69.3 254.5 70.5 257.3 72 260.1C73.6 263.2 75.4 266.2 77.3 269.2C78.8 271.5 80.2 273.6 81.6 275.6C81.8 271.6 82 267.5 82 263.3Z" fill="var(--fill-0, #6BC630)"/>
<path id="Vector_5" d="M88.1 265.9C89.9 263.1 91.6 260.3 93.1 257.4C93.5 256.6 93.9 255.9 94.3 255.1L95.1 253.6L95.8 252C96.1 251.4 96.3 250.8 96.6 250.1C101 239.7 103.1 228.4 102.7 217C97.6 220.5 93.2 225.1 89.9 230.4C88.9 231.9 88.1 233.5 87.2 235.1L86.8 235.8C86.8 235.8 86.9 235.7 86.7 236.1C86.4 236.9 86 237.8 85.7 238.6C84.5 241.8 83.5 245.1 82.7 248.4C82 251.5 81.5 254.6 81.3 257.7C81 261.2 80.8 264.7 80.8 268.2C80.8 270.9 80.9 273.4 81 275.8C83.5 272.7 85.9 269.4 88.1 265.9Z" fill="var(--fill-0, #6BC630)"/>
<path id="Vector_6" d="M88 274.1C89.9 273.2 91.7 272.2 93.5 271.1C94 270.8 94.4 270.5 94.9 270.2C95 270.2 95.5 269.8 95.8 269.6L96.7 269L97.7 268.2C103.5 264 108.2 258.6 111.7 252.3C107.8 252.5 103.9 253.6 100.4 255.4C99.4 255.9 98.4 256.5 97.4 257.1L97 257.3C97 257.3 97.1 257.3 96.8 257.4C96.3 257.7 95.9 258.1 95.4 258.4C93.7 259.8 92.1 261.2 90.7 262.8C89.3 264.2 88.1 265.8 86.9 267.4C85.6 269.2 84.4 271 83.2 272.9C82.3 274.4 81.5 275.7 80.8 277.1C83.3 276.3 85.7 275.2 88 274.1Z" fill="var(--fill-0, #6BC630)"/>
</g>
<g id="pencil_reminder-note-1-62">
<path id="Vector_7" d="M366.8 332.3L372.9 328.9C376.6 328.6 380 330.6 381.7 333.9C385.6 340.9 382.2 344.6 382.2 344.6L376 348.9" fill="var(--fill-0, #F2F2F2)"/>
<path id="Vector_8" d="M259.5 405.1L276.4 384.5L366.5 332.3C366.5 332.3 373.3 332.5 375.6 338.5C377 341.8 377 345.5 375.6 348.8L285.7 401L259.5 405.1Z" fill="var(--fill-0, #FCBF81)"/>
<path id="Vector_9" d="M375.9 338.5C373.6 332.5 366.8 332.3 366.8 332.3L277 384.3C282.2 388.4 286.3 394.2 286.4 400.8L376 348.8C377.3 345.5 377.3 341.8 375.9 338.5Z" fill="var(--fill-0, #313556)"/>
<path id="Vector_10" d="M259.5 405.1L265.7 397.5C265.7 397.5 270.6 399.4 269.1 403.6L259.5 405.1Z" fill="var(--fill-0, #313556)"/>
</g>
<g id="tasks_reminder-note-1-62">
<path id="Vector_11" d="M428.1 142.4C428.1 142.4 436.2 146.9 431.9 176L382.7 146.8C382.8 146.9 402.9 128.3 428.1 142.4Z" fill="var(--fill-0, #313556)"/>
<path id="Vector_12" d="M428.1 142.4C428.1 142.4 413.5 135.4 399 159.4C387.6 178.2 398.8 272.9 383.5 296.4C372.9 312.7 351.1 321.1 351.1 321.1L192.9 222.4C192.9 222.4 212.8 214.2 220.3 197.9C226.6 184.2 237.6 96.9 241.6 81.8C244.3 71.5 253.9 65.9 264.2 66.2C272.3 66.4 279.1 70.7 286.2 74.1L330.3 95.3L421.5 139.1L428.1 142.4Z" fill="var(--fill-0, #F2F2F2)"/>
<path id="Vector_13" d="M360.8 183.9C366.212 183.9 370.6 177.05 370.6 168.6C370.6 160.15 366.212 153.3 360.8 153.3C355.388 153.3 351 160.15 351 168.6C351 177.05 355.388 183.9 360.8 183.9Z" fill="var(--fill-0, #6BC630)"/>
<path id="Vector_14" d="M364.4 164.8C362.6 167.1 360.8 169.3 358.8 171.4L356.4 167.7C355.5 166.3 353.5 167.9 354.4 169.3L357.3 173.8L357.4 173.9C357.7 174.6 358.6 174.9 359.3 174.6C359.4 174.5 359.6 174.4 359.7 174.3C362.1 171.8 364.4 169.1 366.5 166.3C366.9 165.7 366.8 164.9 366.2 164.5C365.6 164.1 364.8 164.2 364.4 164.8Z" fill="var(--fill-0, #313556)"/>
<path id="Vector_15" d="M358.8 231C364.212 231 368.6 224.15 368.6 215.7C368.6 207.25 364.212 200.4 358.8 200.4C353.388 200.4 349 207.25 349 215.7C349 224.15 353.388 231 358.8 231Z" fill="var(--fill-0, #6BC630)"/>
<path id="Vector_16" d="M362.8 212.1C361 214.4 359.2 216.6 357.2 218.7L354.7 215C353.8 213.6 351.8 215.2 352.7 216.6C353.6 218 354.7 219.6 355.7 221.1L355.8 221.2C356.1 221.9 357 222.2 357.7 221.9C357.8 221.8 358 221.7 358.1 221.6C360.5 219.1 362.8 216.4 364.9 213.6C365.3 213 365.2 212.2 364.6 211.8C364 211.3 363.2 211.5 362.8 212.1Z" fill="var(--fill-0, #313556)"/>
<path id="Vector_17" d="M351.1 277.2C356.512 277.2 360.9 270.35 360.9 261.9C360.9 253.45 356.512 246.6 351.1 246.6C345.688 246.6 341.3 253.45 341.3 261.9C341.3 270.35 345.688 277.2 351.1 277.2Z" fill="var(--fill-0, #6BC630)"/>
<path id="Vector_18" d="M355.6 258.1C353.8 260.4 352 262.6 350 264.7C349.2 263.5 348.4 262.2 347.5 261C346.6 259.6 344.6 261.2 345.5 262.6L348.4 267.1L348.5 267.2C348.9 267.9 349.7 268.2 350.5 267.8C350.6 267.7 350.8 267.6 350.9 267.5C353.3 265 355.6 262.3 357.7 259.5C358.1 258.9 357.9 258.1 357.3 257.7C356.8 257.5 356.1 257.6 355.6 258.1Z" fill="var(--fill-0, #313556)"/>
<path id="Vector_19" d="M340.2 156.7L273.1 123.7C271.6 123 270.2 125.2 271.7 125.9L338.8 158.9C340.4 159.6 341.8 157.4 340.2 156.7Z" fill="var(--fill-0, #313556)"/>
<path id="Vector_20" d="M342.9 168.5C314.5 154.7 286 141.3 257.3 128.2C255.8 127.5 254.4 129.7 255.9 130.4C284.6 143.5 313.2 156.9 341.5 170.7C343 171.4 344.4 169.2 342.9 168.5Z" fill="var(--fill-0, #313556)"/>
<path id="Vector_21" d="M335.8 204.3L266.1 168.3C264.6 167.5 263.1 169.8 264.6 170.6L334.3 206.6C335.8 207.4 337.3 205.1 335.8 204.3Z" fill="var(--fill-0, #313556)"/>
<path id="Vector_22" d="M338.2 216.7C308.7 201.6 279.1 186.9 249.3 172.5C247.7 171.7 246.3 174 247.8 174.8C277.6 189.2 307.3 203.9 336.7 219C338.3 219.8 339.8 217.5 338.2 216.7Z" fill="var(--fill-0, #313556)"/>
<path id="Vector_23" d="M330.1 246.9L264.1 211.8C262.6 211 261.2 213.2 262.7 214L328.7 249.1C330.1 249.8 331.6 247.6 330.1 246.9Z" fill="var(--fill-0, #313556)"/>
<path id="Vector_24" d="M332.3 258.7C304.4 244 276.3 229.6 248 215.6C246.5 214.9 245.1 217 246.6 217.8C274.9 231.8 303 246.2 330.9 260.9C332.4 261.7 333.8 259.5 332.3 258.7Z" fill="var(--fill-0, #313556)"/>
</g>
<g id="person_reminder-note-1-62">
<g id="Vector_25">
</g>
<path id="Vector_26" d="M218.6 305.4C218.6 305.4 226.4 301.9 228.3 301.8C230.2 301.7 233.3 302.3 230.6 305.8C230.6 305.8 222.4 311.2 221.3 311.4C220.2 311.6 217.6 310.7 217.5 311C217.4 311.3 217.2 313.4 217.2 313.4C217.2 313.4 210.3 316 210 311.4C210 310.8 211 302.3 211 302.3" fill="var(--fill-0, #E55600)"/>
<path id="Vector_27" d="M209.6 285.2C211 276.3 213.5 267.8 214.5 258.8C215.1 253.2 215.6 247.5 216.3 241.9C217 236.3 219.1 230.8 220.4 225.2C220.5 224.9 220.4 224.7 220.1 224.5L220.3 223.9C221 223.2 221.7 222.6 222.4 222L232 228.5C232 228.5 231.9 234.4 231.6 242.9C230.5 247.9 229.6 252.3 228.4 257C228.7 257.3 228.8 257.7 228.7 258.1C225.6 273 223.3 288 221.9 303.2C221.9 303.7 221.5 304.2 221 304.3L220.7 306.6C212.3 309.8 210.5 304.2 210.5 304.2C210.5 304.2 210.1 299.4 209.6 292.7C209.6 290.3 209.6 287.8 209.6 285.2Z" fill="var(--fill-0, #313556)"/>
<path id="Vector_28" d="M269 192.9L269.2 193C268.8 192.5 268.9 191.9 269.4 191.5C269.5 191.4 269.6 191.4 269.7 191.3C270.2 191.1 270.7 191 271.1 190.9C271.1 190.8 271.2 190.8 271.2 190.7C271.4 190.6 271.5 190.4 271.7 190.3C271.9 190 272.2 189.9 272.5 189.9H272.9C273.3 189.8 273.7 189.7 274.2 189.6L275.7 189.3C275.7 189.2 275.8 189 275.9 188.9C277.9 186.5 279.8 183.9 281.4 181.2C282 180.3 283.7 180.8 283.3 182C282.9 183.3 282.4 184.5 281.8 185.7C284 183.5 285.1 183 287.1 180.6C287.9 179.6 289.4 181 288.5 182C288 182.6 286 184.1 285.5 184.7C286.5 183.8 288.9 182 289.9 181.1C290.9 180.2 292.3 181.7 291.3 182.5C289.7 183.9 288.2 185.3 286.7 186.8C288.1 185.9 289.5 185 290.8 184.1C291.9 183.3 292.9 185.1 291.8 185.9C290.3 187 288.7 188 287.1 189C288.1 188.8 289.1 188.5 290.1 188.1C291.3 187.6 291.9 189.6 290.6 190.1C289.6 190.5 288.6 190.8 287.6 191.1L286.1 191.6C285.5 191.8 284.9 192 284.4 192.4C282.4 193.6 280.2 194.5 278 195.1L277.6 195.4C277.3 195.6 277 195.6 276.7 195.4C274 195.9 271.2 195.7 268.6 194.8C267.3 194.4 267.8 192.4 269 192.9Z" fill="var(--fill-0, #FCBF81)"/>
<path id="Vector_29" d="M239.1 176.4C239.5 176 239.9 175.6 240.3 175.2V175.3C240.3 175.4 240.4 175.5 240.5 175.5C240.6 175.5 240.6 175.5 240.6 175.5L241.4 174.9C241.3 175 241.3 175.1 241.3 175.2C241.2 175.6 241.5 176 242 176.1C242.4 176.2 242.9 176 243 175.5C243 175.4 243 175.4 243 175.3L243.3 175.1C243.3 175.2 243.3 175.3 243.3 175.3C243.3 175.7 243.6 176 244 176C244.1 176 244.2 176 244.3 175.9L244.7 175.7C244.8 175.8 245 175.9 245.2 175.9C246 175.9 246.7 175.9 247.5 175.8C247.4 175.7 247.4 175.5 247.5 175.3C247.5 175.3 247.6 175.3 247.6 175.2C248.6 174.9 249.6 174.6 250.6 174.4H250.7L250.8 174.3C251.2 173.7 251.4 173 251.4 172.3C252 171.9 252.4 171.3 252.5 170.7C252.4 170.7 252.4 170.6 252.3 170.6C252.2 170.5 252.2 170.3 252.1 170.1C252 169.9 252 169.6 252 169.3C252 169.2 252.1 169.1 252.2 169C252 168.5 251.8 168 251.6 167.5C252.9 166.4 253.8 165 254.3 163.4C254.4 163 254.2 162.6 253.8 162.5C253.6 162.4 253.3 162.5 253.1 162.6C252.6 163 252.2 163.4 251.7 163.8C251.6 163.8 251.5 163.9 251.4 163.9C249.1 166.2 246.6 168.3 244.1 170.3C243.7 170.6 238.6 174.1 239 174.4C238.9 175 233.8 180.4 239.1 176.4ZM241.8 175.1C241.8 175.2 241.9 175.3 242 175.2C242.1 175.4 242.3 175.5 242.5 175.5C242.4 175.7 242.1 175.8 241.9 175.7C241.8 175.7 241.6 175.4 241.8 175.1Z" fill="var(--fill-0, #FCBF81)"/>
<path id="Vector_30" d="M240 175.1C240.9 174.8 241.8 174.3 242.6 173.7C243.2 173.1 244.2 173.2 244.7 173.8C244.9 173.4 245 173.1 245.2 172.7C245.9 170.8 248.9 171.8 248.2 173.7C247.7 175.2 246.8 176.6 245.5 177.6C244.2 178.4 242.7 179 241.2 179.3C240.3 179.5 239.5 178.9 239.3 178C239.3 177.8 239.3 177.5 239.3 177.3L239.2 177.2C238.9 176.3 239.3 175.4 240 175.1Z" fill="var(--fill-0, #FCBF81)"/>
<path id="Vector_31" d="M244.4 177.9C246 177.5 247.3 176.6 248.2 175.3C248.2 175.4 248.3 175.5 248.4 175.5L249.9 175.1C250.2 175 250.5 174.9 250.8 174.8C251.4 174.4 251.3 173.6 251.2 173V172.9L251.5 172.7C252 172.4 252.3 171.9 252.5 171.4C252.6 170.8 252.2 170.3 252.2 169.8C252.5 169.3 252.4 168.7 252 168.3C251.5 167.8 250.9 168.1 250.4 168.5C249.3 169.2 248.3 170 247.2 170.8C247 171 247.3 171.3 247.5 171.1C248.1 170.7 248.6 170.2 249.2 169.8C249.8 169.4 250.5 168.6 251 168.5C252.6 168.2 251.7 170 251.3 170.4C251.1 170.6 250.8 170.8 250.6 171C250 171.5 249.5 171.9 249 172.4L248.9 172.5C248.7 174.9 246.9 177 244.5 177.5C244.1 177.6 244.1 178 244.4 177.9ZM249.3 172.8C249.3 172.7 249.2 172.7 249.1 172.7C249.1 172.6 249.1 172.6 249.1 172.6C250.1 171.9 251 171.1 251.8 170.1C251.9 170.2 251.9 170.4 251.9 170.6C252 171.1 251.9 171.6 251.5 171.9C251.1 172.4 249.9 173.5 249.3 172.8ZM248.3 175C248.6 174.4 248.9 173.7 249 173.1C249.5 173.7 250.2 173.4 250.8 173C250.8 173.3 250.8 173.6 250.8 173.8C250.7 174.2 250.5 174.4 250.1 174.5C249.5 174.7 248.9 174.9 248.3 175Z" fill="var(--fill-0, #313556)"/>
<path id="Vector_32" d="M221.4 186.1C222 185.1 242.6 172.7 243.9 171.1C246.6 174.6 247 179.4 244.7 183.2C244.7 183.2 233.1 196.7 227.1 197.9" fill="var(--fill-0, #8B93FC)"/>
<path id="Vector_33" opacity="0.5" d="M221.4 186.1C222 185.1 242.6 172.7 243.9 171.1C246.6 174.6 247 179.4 244.7 183.2C244.7 183.2 233.1 196.7 227.1 197.9" fill="var(--fill-0, #313556)"/>
<path id="Vector_34" d="M235.8 318.3L240.4 320C240.7 320.9 241.4 321.5 242.3 321.7C242.5 321.9 242.7 322 242.9 322.1C244.8 322.2 246.7 321.9 248.4 321.2C250.6 320.5 259.3 317.2 256.9 323.4C255.3 324.5 253.5 325.5 251.9 326.5C251 327.1 250.1 327.6 249.1 328.1C248.6 328.4 248 328.7 247.5 328.9C246.3 329.1 243.2 328.1 243.1 328.5C243 328.9 242.7 331.2 242.7 331.2C242.7 331.2 234.8 334.2 234.4 328.9C234.6 328.1 235.8 318.3 235.8 318.3Z" fill="var(--fill-0, #E55600)"/>
<path id="Vector_35" d="M229.2 270.6C228.2 255 227.7 239.2 224.4 223.8C224.3 219.8 221.7 222.4 221.8 220.8C223.2 207.9 242 223.2 242 223.2C242.8 223.8 242.9 227.8 243 228.7C243.9 233.7 244.6 238.6 245.2 243.6C248.3 268.7 247.2 293.8 245.9 319C241.9 323.1 239.3 324.3 232.9 321.7C231.6 305.2 230.4 288.7 229.3 272.2L229.2 270.6Z" fill="var(--fill-0, #313556)"/>
<path id="Vector_36" d="M218.6 211.4C217.9 203.6 217.7 195.8 218.1 188.1C218.2 186.1 218.8 181.1 220.8 179.9C225.3 177.3 231.5 179.6 235.2 182.4C240.2 186.1 243.1 220.5 243.1 229.1C236.2 231.8 227.2 232.9 220.1 229.9C219.5 229.6 219.3 221.2 219.2 220.1C219.1 217.3 218.8 214.4 218.6 211.4Z" fill="var(--fill-0, #8B93FC)"/>
<path id="Vector_37" d="M232.9 200.2C233.3 205.2 236.8 209.4 241.7 210.7C241.7 211.2 241.8 214.2 241.9 214.6C236.3 213.2 232.1 206.2 231.5 200.2C231.4 199.3 232.8 199.3 232.9 200.2Z" fill="var(--fill-0, #313556)"/>
<path id="Vector_38" d="M233.1 165.2C233.5 165.4 235.7 175.1 233.2 180.2C230.7 185.3 222.5 178 221 173.4C219.5 168.8 224.8 161.3 233.1 165.2Z" fill="var(--fill-0, #FCBF81)"/>
<path id="Vector_39" d="M232.7 166.4C232.7 166.4 232.1 169.4 229.4 169.8C226.7 170.2 224.4 170.5 224.3 171.7C224.2 172.9 229 172.4 228.5 175.1C228.2 176.9 227.6 178.7 226.7 180.4C226.2 181.7 219.2 176.1 218 168.7C216.8 161.3 223.5 160.6 223.8 160.6C224.1 160.6 225 158.8 228.3 158.7C231.6 158.6 232.2 160 232.2 160C233.8 159.4 235.7 160 236.7 161.4C239.1 164.2 237.6 168.3 234 169.4L232.7 166.4Z" fill="var(--fill-0, #E55600)"/>
<path id="Vector_40" d="M234.9 186.2C234.9 186.2 252.6 192.2 258.3 191.1C262.4 190.3 270.3 187.3 274.4 185.8C279 188.4 280.4 194.2 278.8 199.1C272.1 201.6 252.1 208.6 245 206.7C236.4 204.4 226.8 200.9 226.8 200.9C226.8 200.9 217.7 194.7 234.9 186.2Z" fill="var(--fill-0, #8B93FC)"/>
</g>
<g id="alarm_reminder-note-1-62">
<path id="Vector_41" d="M114.2 193.5L123.8 198.4L119.9 192.4L114.2 193.5Z" fill="var(--fill-0, #E55600)"/>
<path id="Vector_42" d="M150.9 120.1L160.3 124.7L152.6 125.5L150.9 120.1Z" fill="var(--fill-0, #E55600)"/>
<path id="Vector_43" d="M155.36 168.106C165.438 147.767 163.9 126.469 151.925 120.535C139.949 114.601 122.071 126.278 111.993 146.616C101.915 166.954 103.453 188.252 115.428 194.186C127.403 200.121 145.281 188.444 155.36 168.106Z" fill="var(--fill-0, #E55600)"/>
<path id="Vector_44" d="M163.808 172.3C173.886 151.962 172.348 130.664 160.373 124.729C148.398 118.795 130.52 130.472 120.441 150.81C110.363 171.148 111.901 192.446 123.876 198.381C135.852 204.315 153.729 192.638 163.808 172.3Z" fill="var(--fill-0, #313556)"/>
<path id="Vector_45" d="M160.224 170.524C169.248 152.313 168.46 133.536 158.464 128.582C148.468 123.629 133.049 134.376 124.025 152.586C115.002 170.797 115.789 189.574 125.785 194.528C135.781 199.481 151.2 188.734 160.224 170.524Z" fill="var(--fill-0, #A8C7F9)"/>
<path id="Vector_46" d="M148.5 160.9L153.3 150C153.3 150 153.8 147.7 152.1 147.1C150.4 146.5 149.4 148.6 149.4 148.6L146 160.5" fill="var(--fill-0, #313556)"/>
<path id="Vector_47" d="M146.1 161.1L131.8 153.4C131.5 153.3 131.3 153.2 131 153.2C130.1 153.2 129.4 153.8 129.2 154.7C128.8 156.3 131.9 157.2 131.9 157.2L145 162.3" fill="var(--fill-0, #313556)"/>
<path id="Vector_48" d="M150.046 163.199C150.769 161.17 150.049 159.059 148.436 158.484C146.823 157.909 144.93 159.088 144.206 161.116C143.483 163.145 144.203 165.256 145.816 165.831C147.429 166.406 149.322 165.228 150.046 163.199Z" fill="var(--fill-0, #313556)"/>
<path id="Vector_49" d="M175.8 125.1C173.9 119.7 169 116 163.3 115.6C161.6 115.5 161.1 118.2 162.8 118.2C167.6 118.4 171.7 121.4 173.3 125.9C173.6 126.6 174.4 126.9 175.1 126.5C175.6 126.4 175.9 125.7 175.8 125.1Z" fill="var(--fill-0, #313556)"/>
<path id="Vector_50" d="M163.4 106.5C161.7 106.3 161.2 109 162.9 109.1C172.2 109.9 180 116.6 182.1 125.7C182.5 127.4 185 126.4 184.6 124.8C182.2 114.8 173.7 107.5 163.4 106.5Z" fill="var(--fill-0, #313556)"/>
<path id="Vector_51" d="M93.2 134.2C87.1 143 84.8 153.9 87.1 164.4C87.5 166.5 90.7 166.2 90.3 164C88.2 154.5 90.1 144.5 95.7 136.4C96.9 134.6 94.5 132.4 93.2 134.2Z" fill="var(--fill-0, #313556)"/>
<path id="Vector_52" d="M97.1 143.6C94.4 148.7 93.3 154.6 94.1 160.4C94.4 162.6 97.4 161.8 97.2 159.5C96.6 154.6 97.5 149.7 99.9 145.4C100.8 143.4 98.2 141.6 97.1 143.6Z" fill="var(--fill-0, #313556)"/>
</g>
</g>
</svg>
